<svg width="44" height="44" viewBox="0 0 44 44" fill="none" xmlns="http://www.w3.org/2000/svg">
<path d="M39.4 44H4.6C2.1 44 0 42 0 39.4V4.6C0 2.1 2.1 0 4.6 0H39.4C42 0 44 2.1 44 4.6V39.4C44 42 42 44 39.4 44Z" fill="#21BBEE"/>
<path d="M21.9 9.7C21.3 9.7 20.9 9.2 20.9 8.7V6C20.9 5.4 21.4 5 21.9 5C22.5 5 22.9 5.5 22.9 6V8.7C22.9 9.3 22.4 9.7 21.9 9.7Z" fill="white"/>
<path d="M16.3 11.2C15.9 11.2 15.6 11 15.4 10.7L14.1 8.4C13.8 7.9 14 7.3 14.4 7C14.6 6.9 14.8 6.9 14.9 6.9C15.3 6.9 15.6 7.1 15.8 7.4L17.1 9.7C17.2 9.9 17.3 10.2 17.2 10.5C17.1 10.8 17 11 16.7 11.1C16.6 11.2 16.5 11.2 16.3 11.2Z" fill="white"/>
<path d="M12.2 15.3C12 15.3 11.9 15.3 11.7 15.2L9.4 13.9C8.9 13.6 8.8 13 9 12.5C9.2 12.2 9.5 12 9.9 12C10.1 12 10.2 12 10.4 12.1L12.7 13.4C13.2 13.7 13.3 14.3 13.1 14.8C12.9 15.1 12.5 15.3 12.2 15.3Z" fill="white"/>
<path d="M8 20.9C7.4 20.9 7 20.4 7 19.9C7 19.3 7.5 18.9 8 18.9H10.7C11.3 18.9 11.7 19.4 11.7 19.9C11.7 20.5 11.2 20.9 10.7 20.9H8Z" fill="white"/>
<path d="M9.9 27.9C9.5 27.9 9.2 27.7 9 27.4C8.9 27.1 8.8 26.9 8.9 26.6C9 26.3 9.1 26.1 9.4 26L11.7 24.7C11.9 24.6 12 24.6 12.2 24.6C12.6 24.6 12.9 24.8 13.1 25.1C13.4 25.6 13.2 26.2 12.7 26.5L10.4 27.8C10.2 27.8 10 27.9 9.9 27.9Z" fill="white"/>
<path d="M33.9 27.9C33.7 27.9 33.6 27.9 33.4 27.8L31.1 26.5C30.6 26.2 30.5 25.6 30.7 25.1C30.9 24.8 31.2 24.6 31.6 24.6C31.8 24.6 31.9 24.6 32.1 24.7L34.4 26C34.6 26.1 34.8 26.3 34.9 26.6C35 26.9 34.9 27.1 34.8 27.4C34.6 27.7 34.3 27.9 33.9 27.9Z" fill="white"/>
<path d="M33.1 20.9C32.5 20.9 32.1 20.4 32.1 19.9C32.1 19.3 32.6 18.9 33.1 18.9H35.8C36.4 18.9 36.8 19.4 36.8 19.9C36.8 20.5 36.3 20.9 35.8 20.9H33.1Z" fill="white"/>
<path d="M31.6 15.3C31.2 15.3 30.9 15.1 30.7 14.8C30.4 14.3 30.6 13.7 31.1 13.4L33.4 12.1C33.6 12 33.7 12 33.9 12C34.3 12 34.6 12.2 34.8 12.5C35.1 13 34.9 13.6 34.4 13.9L32.1 15.2C31.9 15.3 31.8 15.3 31.6 15.3Z" fill="white"/>
<path d="M27.5 11.2C27.3 11.2 27.2 11.2 27 11.1C26.8 11 26.6 10.7 26.5 10.5C26.4 10.2 26.5 10 26.6 9.7L27.9 7.4C28.1 7.1 28.5 6.9 28.8 6.9C29 6.9 29.1 6.9 29.3 7C29.8 7.3 30 7.9 29.7 8.4L28.4 10.7C28.2 11 27.8 11.2 27.5 11.2Z" fill="white"/>
<path d="M26.3 30.7C26.3 30.2 26.1 29.7 25.7 29.5V29.3C28.1 26.9 30.6 23 30.6 19.9C30.6 15.1 26.7 11.2 21.9 11.2C17.1 11.2 13.2 15.1 13.2 19.9C13.2 22.9 15.6 26.7 17.9 29.1C17.6 29.3 17.4 29.7 17.4 30.1C17.4 30.5 17.6 30.9 17.9 31.2C17.6 31.4 17.4 31.7 17.4 32.1C17.4 32.6 17.6 33 17.9 33.2C17.6 33.4 17.4 33.8 17.4 34.2C17.4 34.8 17.7 35.3 18.2 35.5C18.4 36.1 18.8 36.7 19.1 37C19.7 37.6 20.8 38.4 21.6 38.5H21.9C22.8 38.4 24 37.6 24.6 37C24.9 36.7 25.2 36.2 25.3 36.1C25.8 36 26.2 35.5 26.3 34.9C26.3 34.4 26.1 34 25.8 33.8C26.1 33.6 26.3 33.2 26.3 32.8C26.3 32.4 26.1 32 25.8 31.7C26.1 31.4 26.3 31.1 26.3 30.7ZM21.9 26C18.4 26 15.5 23.2 15.5 19.6C15.5 16.1 18.3 13.2 21.9 13.2C25.4 13.2 28.3 16.1 28.3 19.6C28.3 23.1 25.5 26 21.9 26Z" fill="white"/>
</svg>
