<svg width="44" height="44" viewBox="0 0 44 44" fill="none" xmlns="http://www.w3.org/2000/svg">
<path d="M39.4 44H4.6C2.1 44 0 42 0 39.4V4.6C0 2.1 2.1 0 4.6 0H39.4C42 0 44 2.1 44 4.6V39.4C44 42 42 44 39.4 44Z" fill="#21BBEE"/>
<path d="M15.7143 32.8479C17.1336 34.1659 19.1613 35.0784 20.9862 34.3687C22.1014 33.8618 22.9124 32.9493 23.7235 31.9355C27.4747 26.6636 29.7051 21.7973 33.2535 15.4102C35.1797 12.0645 29.6037 7.29956 26.4608 11.7604C25.3456 13.2811 20.3779 21.189 18.553 24.3318C18.553 24.3318 13.5853 18.1475 11.5576 17.0323C9.32719 15.8157 6.18434 17.6406 6.69125 21.0876C7.19816 24.0277 14.3963 31.53 15.7143 32.8479Z" fill="white"/>
</svg>
