<svg width="16" height="16" viewBox="0 0 16 16" fill="none" xmlns="http://www.w3.org/2000/svg">
<path fill-rule="evenodd" clip-rule="evenodd" d="M12.375 16C13 16 13 15.5 13 15C13 14.5 11.75 13 10.5 13C9.25 13 9.875 13.5 8 13.5C6.125 13.5 6.75 13 5.5 13C4.25 13 3 14.5 3 15C3 15.5 3 16 3.625 16H2.00685C1.45078 16 1 15.5554 1 14.9991V1.00087C1 0.448106 1.44631 0 1.99754 0H10V5H15V15.0044C15 15.5543 14.5501 16 13.9932 16H12.375ZM8 12C9.65685 12 11 10.6569 11 9C11 7.34315 9.65685 6 8 6C6.34315 6 5 7.34315 5 9C5 10.6569 6.34315 12 8 12ZM11 4V0L15 4H11Z" fill="#808080" />
</svg>
