<svg width="44" height="44" viewBox="0 0 44 44" fill="none" xmlns="http://www.w3.org/2000/svg">
<path d="M39.4 44H4.6C2.1 44 0 42 0 39.4V4.6C0 2.1 2.1 0 4.6 0H39.4C42 0 44 2.1 44 4.6V39.4C44 42 42 44 39.4 44Z" fill="#21BBEE"/>
<path d="M22.7305 30.5987C16.5239 30.5987 10.3174 27.7171 4.33249 22.1755L4 21.843L4.22166 21.6214C4.22166 21.6214 8.76574 17.299 15.4156 15.1932C19.2947 13.974 23.1738 13.6415 26.9421 14.4173C31.597 15.304 36.0302 17.7423 40.131 21.6214L40.3526 21.843L40.131 22.0647C40.0202 22.1755 38.5793 24.0597 35.8086 26.0546C33.2594 27.9388 29.1587 30.1554 24.1713 30.5987C23.728 30.4879 23.1738 30.5987 22.7305 30.5987ZM4.88665 21.843C11.204 27.6063 17.7431 30.377 24.1713 29.9337C29.0479 29.6012 33.0378 27.3846 35.4761 25.6113C37.6927 24.0597 39.0227 22.508 39.466 21.9539C35.4761 18.1856 31.2645 15.8582 26.8312 15.0823C23.1738 14.4173 19.4055 14.639 15.6373 15.8582C9.98489 17.6315 5.88413 20.9564 4.88665 21.843Z" fill="white"/>
<path d="M22.9521 29.3796C26.8696 29.3796 30.0453 26.2038 30.0453 22.2864C30.0453 18.3689 26.8696 15.1932 22.9521 15.1932C19.0347 15.1932 15.8589 18.3689 15.8589 22.2864C15.8589 26.2038 19.0347 29.3796 22.9521 29.3796Z" fill="white"/>
<path d="M19.9597 21.0672C21.0003 21.0672 21.8438 20.2237 21.8438 19.1831C21.8438 18.1425 21.0003 17.299 19.9597 17.299C18.9191 17.299 18.0756 18.1425 18.0756 19.1831C18.0756 20.2237 18.9191 21.0672 19.9597 21.0672Z" fill="white"/>
</svg>
