<svg width="44" height="44" viewBox="0 0 44 44" fill="none" xmlns="http://www.w3.org/2000/svg">
<path d="M39.4 44H4.6C2.1 44 0 42 0 39.4V4.6C0 2.1 2.1 0 4.6 0H39.4C42 0 44 2.1 44 4.6V39.4C44 42 42 44 39.4 44Z" fill="#21BBEE"/>
<path d="M27.2964 20.7807C27.2964 32.4434 27.2964 31.8072 26.4482 32.1253C21.0409 34.1397 13.9373 33.5036 12.453 32.6554C11.3927 32.1253 10.4385 31.1711 11.2867 30.3229C11.6048 30.0048 10.4385 30.1108 19.2385 30.1108C19.9807 30.1108 19.9807 29.0506 19.2385 29.0506C8.84816 29.0506 12.347 29.1566 10.9686 28.7325C10.6506 28.6265 10.2265 28.3084 10.0144 27.6723C9.69635 26.9301 10.2265 26.718 10.4385 26.294C17.4361 26.294 17.8602 26.506 17.8602 25.7638C17.8602 25.0217 17.7542 25.2337 10.4385 25.2337C10.2265 24.9156 10.0144 25.0217 9.48431 24.5976C8.74214 23.9614 8.95419 23.1132 9.37828 22.6891C9.69635 22.4771 8.63611 22.4771 16.1638 22.4771C16.906 22.4771 16.906 21.4168 16.1638 21.4168C7.15178 21.4168 10.0144 21.5229 9.06021 21.2048C8.42406 20.9928 7.89394 20.2506 7.99997 19.5084C8.21202 18.6602 8.10599 18.8723 16.6939 18.8723C17.9662 18.8723 19.2385 17.9181 18.9205 16.7518C18.9205 16.7518 18.4964 14.7373 18.3903 13.359C18.2843 12.1928 18.2843 11.9807 18.4964 11.0265C18.7084 10.4964 19.4506 7.95179 19.9807 7.84576C20.6168 7.63372 21.465 7.73974 21.465 8.48191C21.465 9.54215 21.6771 12.8289 22.4192 14.3132C25.918 20.6747 26.4482 20.1446 27.2964 20.7807Z" fill="white"/>
<path d="M34.8241 20.3566V33.2915C34.8241 33.6096 34.506 33.9277 34.1879 33.9277H28.7807C28.4626 33.9277 28.1445 33.6096 28.1445 33.2915V20.3566C28.1445 20.0385 28.4626 19.7205 28.7807 19.7205H34.1879C34.612 19.7205 34.8241 20.0385 34.8241 20.3566Z" fill="white"/>
<path d="M35.0361 19.2964H27.7204V34.1397H30.4771V26.8241C30.4771 24.7036 32.1735 22.9012 34.4 22.9012H35.0361V19.2964Z" fill="white"/>
<path d="M18.8144 29.8988H10.7566V32.4434L12.7711 33.0795V32.8674C12.7711 32.0193 13.5132 31.2771 14.3614 31.2771H17.4361C18.1783 31.2771 18.8144 30.6409 18.8144 29.8988Z" fill="white"/>
<path d="M11.8168 29.3687V28.9446C11.8168 28.0964 12.559 27.3542 13.4072 27.3542H16.1638C16.906 27.3542 17.5421 26.7181 17.5421 25.9759H9.69635V27.3542H9.80238V28.8385L11.8168 29.3687Z" fill="white"/>
<path d="M12.2409 23.6434H14.2554C14.9976 23.6434 15.6337 23.0072 15.6337 22.265H8.63611V24.8096L10.6506 25.4458V25.2337C10.6506 24.3855 11.2867 23.6434 12.2409 23.6434Z" fill="white"/>
<path d="M11.3927 20.0385H16.0578C16.8 20.0385 17.4361 19.4024 17.4361 18.6602H7.78792V20.9928L9.80238 21.6289C9.80238 20.7807 10.5445 20.0385 11.3927 20.0385Z" fill="white"/>
<path d="M26.3421 20.0385V25.8699C26.3421 29.3687 24.0096 32.5494 20.6168 33.3976C20.1927 33.5036 19.8747 33.6096 19.5566 33.6096C19.5566 33.6096 25.918 32.9735 27.5084 32.0193C27.5084 32.0193 27.6144 20.1446 27.5084 20.2506C27.4024 20.3566 26.3421 20.0385 26.3421 20.0385Z" fill="white"/>
<path d="M34.1879 18.6602C28.9927 18.6602 27.6144 18.2361 27.1903 19.9325C26.4482 19.4024 24.2217 15.0554 24.0096 14.7373C23.6915 14.2072 22.7373 12.7229 22.7373 8.58793C22.7373 7.73974 21.9951 6.78552 20.9349 6.78552C19.5566 6.78552 18.7084 6.99757 17.6482 10.9205C17.3301 11.9807 17.3301 12.4048 17.4361 13.5711C17.9662 18.7662 20.2988 17.9181 9.59033 17.9181C8.31804 17.9181 7.36383 18.1301 7.04575 19.4024C6.8337 20.4626 7.36382 21.6289 8.53009 22.159C7.57587 23.3253 7.99997 25.1277 9.59033 25.8699C8.31804 27.1421 9.37828 29.0506 10.6506 29.5807C9.59033 30.6409 9.9084 32.5494 12.2409 33.5036C13.5132 34.0337 20.8289 35.306 27.0843 33.0795C27.4024 32.9735 27.2964 32.7614 27.2964 33.6096C27.2964 34.3518 27.9325 34.9879 28.6747 34.9879C29.2048 34.9879 33.8698 34.9879 34.718 34.9879C35.4602 34.9879 36.0964 34.3518 36.0964 33.6096C36.0964 32.8675 36.0964 20.9928 36.0964 20.3566C35.8843 19.4024 35.1421 18.6602 34.1879 18.6602ZM26.7662 32.0193C23.9036 33.6096 15.1036 33.7156 12.559 32.6554C11.4988 32.1253 10.5445 31.1711 11.3927 30.3229C11.7108 30.0048 10.5445 30.1108 19.3445 30.1108C20.0867 30.1108 20.0867 29.0506 19.3445 29.0506C8.95419 29.0506 12.453 29.1566 11.0747 28.7325C10.7566 28.6265 10.3325 28.3084 10.1205 27.6723C9.80238 26.9301 10.3325 26.612 10.5445 26.294C17.5421 26.294 17.9662 26.506 17.9662 25.7638C17.9662 25.0217 17.8602 25.2337 10.5445 25.2337C10.3325 24.9156 10.0144 25.0217 9.59033 24.5976C8.84816 23.9614 9.06021 23.1132 9.48431 22.6891C9.80238 22.4771 8.74214 22.4771 16.2698 22.4771C17.012 22.4771 17.012 21.4168 16.2698 21.4168C7.2578 21.4168 10.1205 21.5229 9.16623 21.2048C8.53009 20.9928 7.99997 20.2506 8.10599 19.5084C8.31804 18.5542 8.42407 18.8723 16.8 18.8723C18.0723 18.8723 19.3445 18.0241 19.0265 16.6458C18.6024 14.4193 18.4964 13.5711 18.3903 12.6168C18.2843 11.3446 19.4506 8.05781 20.0867 7.84576C20.7229 7.63372 21.5711 7.73974 21.5711 8.48191C21.5711 9.54215 21.7831 12.8289 22.5253 14.3132C24.3277 17.706 25.3879 19.9325 26.9783 21.0988C27.0843 32.9735 27.2964 31.7012 26.7662 32.0193ZM28.1445 33.2915C28.1445 19.6144 27.9325 19.7205 28.7807 19.7205C34.2939 19.7205 34.8241 19.5084 34.8241 20.3566C34.8241 33.9277 35.1421 33.9277 34.1879 33.9277C28.6747 33.9277 28.1445 34.1397 28.1445 33.2915Z" fill="white"/>
</svg>
