<svg width="32" height="32" viewBox="0 0 32 32" fill="none" xmlns="http://www.w3.org/2000/svg">
<path d="M22.5471 6.65596L23.0988 5.38086L23.9203 6.17779L22.5471 6.65596Z" fill="#FFE052"/>
<path d="M23.2337 7.47746L25.1831 6.65601L24.2023 8.83838L23.2337 7.47746Z" fill="#644192"/>
<path d="M25.3671 9.31652L26.7525 7.21997L27.8682 8.65445L25.3671 9.31652Z" fill="#46BDD6"/>
<path d="M29.033 9.02221L30.259 8.40918L29.7809 9.8314L29.033 9.02221Z" fill="#EA4F96"/>
<path d="M30.6391 11.3394L32 10.7877L31.3134 12.1364L30.6391 11.3394Z" fill="#644192"/>
<path d="M28.0276 10.0399L24.8276 10.8859L26.4337 12.9947L28.0276 10.0399Z" fill="#826AAD"/>
<path d="M27.7088 13.7916L29.413 11.2904L30.6391 12.9946L27.7088 13.7916Z" fill="#FFE052"/>
<path d="M27.3042 15.4958L29.8421 14.4905L28.3464 17.2246L27.3042 15.4958Z" fill="#644192"/>
<path d="M24.2023 15.974L26.0291 14.4905L20.8061 6.20239L24.2023 15.974Z" fill="#EA4F96"/>
<path d="M23.7609 17.8621L26.4337 15.974L27.5494 18.2667L24.2023 19.5663L23.7609 17.8621Z" fill="#826AAD"/>
<path d="M24.0552 20.4736L27.7088 19.5663C27.7088 19.5663 27.5494 21.7487 25.1831 24.3356C24.8276 23.036 24.0552 20.4736 24.0552 20.4736Z" fill="#46BDD6"/>
<path d="M23.4176 19.7257L22.915 18.1073L19.0038 21.0376L23.4176 19.7257Z" fill="#FFE052"/>
<path d="M19.715 21.3808L23.2337 20.7433L24.4107 24.6054C24.4107 24.6054 22.8291 26.849 20.0092 28.0751C19.8498 28.1487 19.7027 27.9647 19.7885 27.8176C20.5119 26.6406 21.2107 24.9364 21.2107 23.9433C21.2107 22.7908 20.9165 21.9448 19.715 21.3808Z" fill="#644192"/>
<path d="M19.482 19.4437L23.2337 16.4521L19.6169 5.80994L19.482 19.4437Z" fill="#826AAD"/>
<path d="M16.2084 12.1365L18.7341 11.4621L17.9862 5.54028L16.2084 12.1365Z" fill="#46BDD6"/>
<path d="M16.331 12.9947L18.7341 12.3326L18.1701 21.0376L16.331 12.9947Z" fill="#EA4F96"/>
<path d="M13.5724 4.40002C15.2766 4.40002 17.0912 4.95175 17.0912 4.95175L15.3257 11.2904L11.2797 4.63297C11.2797 4.63297 12.1011 4.40002 13.5724 4.40002Z" fill="#644192"/>
<path d="M7.78544 17.3594L3.55556 16.2314L10.5073 4.63293L7.78544 17.3594Z" fill="#46BDD6"/>
<path d="M11.623 19.5663L10.5073 4.63293L7.78545 17.3594L11.623 19.5663Z" fill="#644192"/>
<path d="M15.3747 13.105L10.5073 4.63293L11.623 19.5663L15.3747 13.105Z" fill="#826AAD"/>
<path d="M17.3242 21.4054L11.623 19.5663L15.3747 13.105L17.3242 21.4054Z" fill="#46BDD6"/>
<path d="M7.78544 17.3594L6.00767 24.2376L3.55556 16.2314L7.78544 17.3594Z" fill="#826AAD"/>
<path d="M9.2567 21.246L6.00766 24.2375L7.78544 17.3594L9.2567 21.246Z" fill="#644192"/>
<path d="M1.459 10.6284L3.55555 16.2314L5.89732 6.47205C3.89885 7.2935 2.42758 8.88737 1.459 10.6284Z" fill="#644192"/>
<path d="M5.89732 6.47202L3.55556 16.2314L10.5073 4.63293C10.5073 4.63293 9.89426 4.81684 5.89732 6.47202Z" fill="#EA4F96"/>
<path d="M0 15.6675L3.5433 16.2315L1.459 10.6284C0.490422 12.3572 0.0122605 14.2453 0 15.6675Z" fill="#FFE052"/>
<path d="M0 15.6797C0 19.5663 2.7341 23.1096 5.9954 24.2253L3.5433 16.2192L0 15.6675C0 15.6797 0 15.6797 0 15.6797Z" fill="#644192"/>
<path d="M8.12873 24.6054C8.99923 24.6054 9.69808 24.5195 10.4092 24.3356L9.24444 21.246L6.00766 24.2375C6.69425 24.4705 7.41762 24.6054 8.12873 24.6054Z" fill="#46BDD6"/>
<path d="M10.4215 24.3356C10.8874 24.213 11.3655 24.0659 11.8927 23.8575L11.6353 19.5663L7.79771 17.3594L10.4215 24.3356Z" fill="#EA4F96"/>
<path d="M13.8544 23.0605C16.4169 21.9939 17.3119 21.4054 17.3119 21.4054L11.6107 19.5663C11.6107 19.5663 11.954 23.8207 11.8682 23.8575C12.4567 23.649 13.0943 23.3793 13.8544 23.0605Z" fill="#FFE052"/>
</svg>
